<svg width="260" height="182" viewBox="0 0 260 182" fill="none" xmlns="http://www.w3.org/2000/svg">
<path fill-rule="evenodd" clip-rule="evenodd" d="M201.15 179.68C179.623 179.68 163.876 172.32 153.91 157.6C149.524 151.632 145.936 143.676 143.146 133.73C140.355 123.784 138.96 112.843 138.96 100.908C138.96 80.2205 144.342 61.1245 155.105 43.6195C165.869 26.1145 181.616 12.5882 202.346 3.04004L207.728 13.7817C197.363 18.5557 188.094 25.4184 179.922 34.3698C171.749 43.3212 166.068 52.7697 162.879 62.7157C160.886 68.2855 159.889 74.8497 159.889 82.4087C159.889 88.3763 160.288 92.7525 161.085 95.5373C171.45 83.2043 186.001 77.0379 204.738 77.0379C220.684 77.0379 233.441 81.5135 243.008 90.4649C252.576 99.4163 257.36 112.048 257.36 128.359C257.36 143.875 252.178 156.307 241.813 165.656C231.447 175.005 217.893 179.68 201.15 179.68ZM64.1899 179.68C42.6625 179.68 26.9159 172.32 16.9495 157.6C12.5643 151.632 8.97645 143.676 6.18586 133.73C3.39527 123.784 2 112.843 2 100.908C2 80.2205 7.38176 61.1245 18.1455 43.6195C28.9091 26.1145 44.6558 12.5882 65.3859 3.04004L70.7677 13.7817C60.4026 18.5557 51.134 25.4184 42.9616 34.3698C34.7892 43.3212 29.1084 52.7697 25.9192 62.7157C23.9259 68.2855 22.9293 74.8497 22.9293 82.4087C22.9293 88.3763 23.3279 92.7525 24.1253 95.5373C34.4903 83.2043 49.041 77.0379 67.7778 77.0379C83.724 77.0379 96.4808 81.5135 106.048 90.4649C115.616 99.4163 120.4 112.048 120.4 128.359C120.4 143.875 115.218 156.307 104.853 165.656C94.4875 175.005 80.9334 179.68 64.1899 179.68Z" fill="#6EE1FF" fill-opacity="0.21"/>
<path d="M153.91 157.6L155.566 156.479L155.544 156.447L155.521 156.416L153.91 157.6ZM202.346 3.04004L204.134 2.14415L203.267 0.4138L201.509 1.22347L202.346 3.04004ZM207.728 13.7817L208.564 15.5982L210.442 14.7336L209.516 12.8858L207.728 13.7817ZM162.879 62.7157L164.762 63.3896L164.773 63.3582L164.784 63.3264L162.879 62.7157ZM161.085 95.5373L159.163 96.0878L160.197 99.7024L162.616 96.8241L161.085 95.5373ZM16.9495 157.6L18.6056 156.479L18.584 156.447L18.5611 156.416L16.9495 157.6ZM65.3859 3.04004L67.174 2.14415L66.307 0.4138L64.5492 1.22347L65.3859 3.04004ZM70.7677 13.7817L71.6044 15.5982L73.4816 14.7336L72.5558 12.8858L70.7677 13.7817ZM25.9192 62.7157L27.8022 63.3896L27.8135 63.3582L27.8237 63.3264L25.9192 62.7157ZM24.1253 95.5373L22.2025 96.0878L23.2374 99.7024L25.6563 96.8241L24.1253 95.5373ZM201.15 177.68C180.126 177.68 165.078 170.529 155.566 156.479L152.253 158.721C162.673 174.111 179.119 181.68 201.15 181.68V177.68ZM155.521 156.416C151.323 150.702 147.821 142.988 145.072 133.189L141.22 134.27C144.052 144.363 147.726 152.563 152.298 158.784L155.521 156.416ZM145.072 133.189C142.337 123.444 140.96 112.688 140.96 100.908H136.96C136.96 112.998 138.373 124.123 141.22 134.27L145.072 133.189ZM140.96 100.908C140.96 80.5877 146.241 61.8547 156.809 44.6671L153.402 42.5719C142.443 60.3942 136.96 79.8532 136.96 100.908H140.96ZM156.809 44.6671C167.344 27.5351 182.77 14.2586 203.183 4.85661L201.509 1.22347C180.462 10.9178 164.395 24.694 153.402 42.5719L156.809 44.6671ZM200.558 3.93593L205.94 14.6776L209.516 12.8858L204.134 2.14415L200.558 3.93593ZM206.891 11.9651C196.269 16.8577 186.786 23.8851 178.445 33.0213L181.399 35.7183C189.402 26.9516 198.457 20.2538 208.564 15.5982L206.891 11.9651ZM178.445 33.0213C170.109 42.1511 164.265 51.8447 160.975 62.105L164.784 63.3264C167.872 53.6948 173.389 44.4912 181.399 35.7183L178.445 33.0213ZM160.996 62.0418C158.907 67.8785 157.889 74.6808 157.889 82.4087H161.889C161.889 75.0187 162.864 68.6925 164.762 63.3896L160.996 62.0418ZM157.889 82.4087C157.889 88.4091 158.284 93.02 159.163 96.0878L163.008 94.9869C162.292 92.4849 161.889 88.3435 161.889 82.4087H157.889ZM162.616 96.8241C172.537 85.0193 186.485 79.0379 204.738 79.0379V75.0379C185.517 75.0379 170.363 81.3893 159.554 94.2506L162.616 96.8241ZM204.738 79.0379C220.293 79.0379 232.522 83.3926 241.642 91.9254L244.375 89.0044C234.36 79.6344 221.075 75.0379 204.738 75.0379V79.0379ZM241.642 91.9254C250.711 100.41 255.36 112.456 255.36 128.359H259.36C259.36 111.639 254.442 98.4228 244.375 89.0044L241.642 91.9254ZM255.36 128.359C255.36 143.379 250.368 155.246 240.473 164.171L243.152 167.141C253.987 157.368 259.36 144.371 259.36 128.359H255.36ZM240.473 164.171C230.546 173.125 217.503 177.68 201.15 177.68V181.68C218.284 181.68 232.349 176.886 243.152 167.141L240.473 164.171ZM64.1899 177.68C43.1662 177.68 28.1184 170.529 18.6056 156.479L15.2934 158.721C25.7133 174.111 42.1588 181.68 64.1899 181.68V177.68ZM18.5611 156.416C14.3627 150.702 10.8608 142.988 8.1115 133.189L4.26022 134.27C7.09206 144.363 10.7659 152.563 15.3378 158.784L18.5611 156.416ZM8.1115 133.189C5.37721 123.444 4 112.688 4 100.908H0C0 112.998 1.41334 124.123 4.26022 134.27L8.1115 133.189ZM4 100.908C4 80.5877 9.28057 61.8547 19.8491 44.6671L16.4418 42.5719C5.48296 60.3942 0 79.8532 0 100.908H4ZM19.8491 44.6671C30.3835 27.5351 45.8098 14.2586 66.2226 4.85661L64.5492 1.22347C43.5017 10.9178 27.4348 24.694 16.4418 42.5719L19.8491 44.6671ZM63.5977 3.93593L68.9796 14.6776L72.5558 12.8858L67.174 2.14415L63.5977 3.93593ZM69.931 11.9651C59.3086 16.8577 49.8257 23.8851 41.4846 33.0213L44.4386 35.7183C52.4424 26.9516 61.4967 20.2538 71.6044 15.5982L69.931 11.9651ZM41.4846 33.0213C33.1492 42.1511 27.3047 51.8447 24.0147 62.105L27.8237 63.3264C30.9121 53.6948 36.4291 44.4912 44.4386 35.7183L41.4846 33.0213ZM24.0361 62.0418C21.9474 67.8785 20.9293 74.6808 20.9293 82.4087H24.9293C24.9293 75.0187 25.9045 68.6925 27.8022 63.3896L24.0361 62.0418ZM20.9293 82.4087C20.9293 88.4091 21.3242 93.02 22.2025 96.0878L26.048 94.9869C25.3317 92.4849 24.9293 88.3435 24.9293 82.4087H20.9293ZM25.6563 96.8241C35.5774 85.0193 49.5245 79.0379 67.7778 79.0379V75.0379C48.5575 75.0379 33.4031 81.3893 22.5942 94.2506L25.6563 96.8241ZM67.7778 79.0379C83.3327 79.0379 95.5618 83.3926 104.682 91.9254L107.415 89.0044C97.3997 79.6344 84.1152 75.0379 67.7778 75.0379V79.0379ZM104.682 91.9254C113.751 100.41 118.4 112.456 118.4 128.359H122.4C122.4 111.639 117.482 98.4228 107.415 89.0044L104.682 91.9254ZM118.4 128.359C118.4 143.379 113.408 155.246 103.513 164.171L106.192 167.141C117.027 157.368 122.4 144.371 122.4 128.359H118.4ZM103.513 164.171C93.5859 173.125 80.5426 177.68 64.1899 177.68V181.68C81.3242 181.68 95.389 176.886 106.192 167.141L103.513 164.171Z" fill="#6EE1FF"/>
</svg>
